<svg xmlns="http://www.w3.org/2000/svg" width="20.746" height="20.75" viewBox="0 0 20.746 20.75">
  <path id="Path_195" data-name="Path 195" d="M949.328,1717.624H947.94c-.228-.029-.456-.055-.684-.089a9.917,9.917,0,0,1-8.338-8.044c-.063-.345-.1-.693-.153-1.04v-1.426a1.488,1.488,0,0,0,.037-.145c.072-.455.112-.918.22-1.364a9.668,9.668,0,0,1,4.083-5.924,9.86,9.86,0,0,1,12.29,15.344,9.653,9.653,0,0,1-5.025,2.535C950.026,1717.532,949.676,1717.573,949.328,1717.624Zm-1.508-12.121c0,.88,0,1.76,0,2.639a.8.8,0,0,0,.229.593q2.063,2.066,4.13,4.126a.808.808,0,0,0,1.361-.4.823.823,0,0,0-.272-.815q-1.833-1.832-3.668-3.663a.469.469,0,0,1-.156-.367c.006-1.561,0-3.121,0-4.682a1.261,1.261,0,0,0-.024-.305.812.812,0,0,0-1.6.2C947.819,1703.717,947.821,1704.61,947.821,1705.5Z" transform="translate(-938.266 -1697.374)" fill="#37ABBB" stroke="#37ABBB" stroke-width="1"/>
</svg>
