<svg xmlns="http://www.w3.org/2000/svg" xmlns:xlink="http://www.w3.org/1999/xlink" width="34.019" height="33.685" viewBox="0 0 34.019 33.685">
  <defs>
    <linearGradient id="linear-gradient" x1="2.21" y1="-0.527" x2="-2.77" y2="1.618" gradientUnits="objectBoundingBox">
      <stop offset="0" stop-color="#fff"/>
      <stop offset="1" stop-color="#92d9e8"/>
    </linearGradient>
  </defs>
  <path id="Path_107" data-name="Path 107" d="M1053.655,793.531a4.151,4.151,0,0,1,1.2-2.9.267.267,0,0,0,.02-.021l.229-.218a4.549,4.549,0,0,1,.956-.625,4.2,4.2,0,0,1,3.4-.094,4.261,4.261,0,0,1,1.27.8,4.472,4.472,0,0,1,.9,1.172,4.154,4.154,0,0,1-1.922,5.616,3.992,3.992,0,0,1-2.03.406,4.186,4.186,0,0,1-3.9-3.206,5.172,5.172,0,0,1-.12-.934Zm-17.005-.041a4.862,4.862,0,0,0,.718,2.894,5.067,5.067,0,0,0,1.5,1.628,5.981,5.981,0,0,0,2.208.916c.817.216,1.647.457,2.476.65l-1.055-.934a16.026,16.026,0,0,1-4.719-8.227,5.59,5.59,0,0,1-.151-.864c-.133.1-.047-.013-.1.184a24.37,24.37,0,0,0-.874,3.753Zm4.3-16.558c.136-.036.057-.008.141-.1l.823-.922c.165-.164.335-.36.509-.506a2.46,2.46,0,0,0,.262-.224,15.344,15.344,0,0,1,1.7-1.341,3.343,3.343,0,0,1,.313-.214c.226-.138.411-.253.63-.385a16.193,16.193,0,0,1,5.132-1.929,3.08,3.08,0,0,0,.835-.179,32.825,32.825,0,0,0-4.179-.975,5.153,5.153,0,0,0-3.362.981c-.077.057-.141.09-.215.149-.09.072-.117.106-.219.187a3.267,3.267,0,0,0-.393.378c-1.078,1.224-1.2,2.3-1.637,3.842l-.342,1.241Zm14.975,25.852c.079.107.063.076.209.116.106.029.151.035.263.063a27.231,27.231,0,0,0,3.79.877,5.3,5.3,0,0,0,4.668-2.312,6.546,6.546,0,0,0,.916-2.332c.109-.433.222-.857.346-1.276.059-.2.107-.419.172-.64a4.951,4.951,0,0,1,.188-.664c-.158.042-.246.279-.478.538-.172.193-.331.365-.49.565a17.137,17.137,0,0,1-2.191,1.989,16.1,16.1,0,0,1-6.483,2.933,4.9,4.9,0,0,1-.91.145Zm13.6-17.776h.081a2.461,2.461,0,0,1,.127-.563l.437-1.632c.573-1.93.854-3.4-.272-5.279a5.194,5.194,0,0,0-2.651-2.178c-.461-.171-2.55-.707-3.193-.866a3.3,3.3,0,0,0-.658-.155l.558.457c.443.412.578.5,1.1,1.014l.509.546a14.8,14.8,0,0,1,1.807,2.414,12.423,12.423,0,0,1,.726,1.344,16.388,16.388,0,0,1,.89,2.276c.082.275.17.534.234.821a9.533,9.533,0,0,1,.309,1.8Zm-22.2,10.674a4.393,4.393,0,0,1-2.933-1.166,4.166,4.166,0,0,1-.911-4.745,5.119,5.119,0,0,1,.352-.623l.456-.558a4.932,4.932,0,0,1,1.167-.821,4.3,4.3,0,0,1,4.3.369,4.125,4.125,0,0,1,1.375,5.064,4.071,4.071,0,0,1-1.12,1.476,4.373,4.373,0,0,1-2.689,1Zm4.383-8.564a2.106,2.106,0,0,0,.358,1.068,1.871,1.871,0,0,0,3.375-1.109,1.907,1.907,0,0,0-.838-1.516,1.874,1.874,0,0,0-2.9,1.556Zm4.1-4.626a4.412,4.412,0,0,1,1.226-2.954,4.259,4.259,0,0,1,4.633-.874l.663.35a4.188,4.188,0,0,1,1.88,3.276,4.109,4.109,0,0,1-1.449,3.34,4.382,4.382,0,0,1-.905.6,4.286,4.286,0,0,1-3.978-.163,4.521,4.521,0,0,1-1.005-.815l-.1-.106a4.541,4.541,0,0,1-.589-.958,4.352,4.352,0,0,1-.378-1.692Zm-6.331,2.15-1.04-.131a4.266,4.266,0,0,1-2.749-2.168,4.194,4.194,0,0,1-.054-3.614,4.11,4.11,0,0,1,1.974-2,4.2,4.2,0,0,1,5.935,4.635,4.034,4.034,0,0,1-1.128,2.037,4.214,4.214,0,0,1-1.22.85,4.666,4.666,0,0,1-1.719.391ZM1038.882,787a17.066,17.066,0,0,0,.375,3.237l.4,1.424c.161.424.325.908.522,1.3.1.2.181.413.284.609.057.11.106.174.163.284a14.551,14.551,0,0,0,4.741,5.242c.093.064.171.1.274.172.2.136.371.233.576.357l1.2.624c.44.182.8.357,1.265.52s.9.286,1.412.415a15.01,15.01,0,0,0,9.791-.931l1.727-.952a14.746,14.746,0,0,0,3.794-3.47,16.105,16.105,0,0,0,1.1-1.66c.065-.108.094-.176.158-.289s.1-.156.162-.284a15.254,15.254,0,0,0,1.214-3.332,16.554,16.554,0,0,0,.383-3.27,14.9,14.9,0,0,0-1.3-5.966,14.455,14.455,0,0,0-2.1-3.34,17.267,17.267,0,0,0-1.22-1.29,13.513,13.513,0,0,0-1.608-1.319l-.537-.357a14.87,14.87,0,0,0-1.778-.982,13.944,13.944,0,0,0-2.677-.934,15.017,15.017,0,0,0-7.079-.008c-.487.122-.937.25-1.413.413a15.93,15.93,0,0,0-2.474,1.138,15.139,15.139,0,0,0-2.144,1.508l-.482.412a18.926,18.926,0,0,0-1.322,1.4,14.459,14.459,0,0,0-3.033,6.058A16.607,16.607,0,0,0,1038.882,787Z" transform="translate(-1036.65 -770.154)" fill-rule="evenodd" fill="url(#linear-gradient)"/>
</svg>
