<svg xmlns="http://www.w3.org/2000/svg" xmlns:xlink="http://www.w3.org/1999/xlink" width="33.433" height="34.123" viewBox="0 0 33.433 34.123">
  <defs>
    <linearGradient id="linear-gradient" x1="2.21" y1="-0.527" x2="-2.77" y2="1.618" gradientUnits="objectBoundingBox">
      <stop offset="0" stop-color="#fff"/>
      <stop offset="1" stop-color="#92d9e8"/>
    </linearGradient>
  </defs>
  <path id="Path_104" data-name="Path 104" d="M1124.8,804.5h12.727a10.378,10.378,0,0,0,10.353-10.353V780.725a10.378,10.378,0,0,0-10.353-10.353H1124.8a10.38,10.38,0,0,0-10.353,10.353v13.418A10.38,10.38,0,0,0,1124.8,804.5Zm15.168-29.052a2.318,2.318,0,1,1-2.316,2.317,2.317,2.317,0,0,1,2.316-2.317Zm-8.805,3.214a8.4,8.4,0,0,1,5.962,2.47l0,0a8.406,8.406,0,0,1,2.473,5.958q0,.173-.007.344v0c0,.114.007.228.007.344a8.406,8.406,0,0,1-2.473,5.958l0,0a8.43,8.43,0,0,1-14.392-5.96c0-.116,0-.23.007-.344v0c-.005-.114-.007-.228-.007-.344a8.432,8.432,0,0,1,8.43-8.431Zm5.639,9.094v.028a5.619,5.619,0,0,1-1.646,3.987h-.005a5.639,5.639,0,0,1-9.626-3.987v-.028h.038c-.012-.105-.021-.211-.028-.318s.015-.213.028-.318h-.038v-.028a5.639,5.639,0,0,1,9.626-3.987h.005a5.616,5.616,0,0,1,1.646,3.987v.028h-.039c.013.105.022.211.029.318s-.016.213-.029.318Zm8.286-.636v7.027a7.586,7.586,0,0,1-7.562,7.561H1124.8a7.586,7.586,0,0,1-7.561-7.561V780.725a7.586,7.586,0,0,1,7.561-7.561h12.727a7.587,7.587,0,0,1,7.562,7.561Z" transform="translate(-1114.446 -770.372)" fill-rule="evenodd" fill="url(#linear-gradient)"/>
</svg>
