<svg xmlns="http://www.w3.org/2000/svg" width="25.842" height="25.842" viewBox="0 0 25.842 25.842">
  <g id="Group_2011" data-name="Group 2011" transform="translate(-346.989 -657.043)">
    <path id="_2_Avatar_2" data-name="2 Avatar_2" d="M17.151,4.73a12.421,12.421,0,1,0,8.783,3.638A12.421,12.421,0,0,0,17.151,4.73Z" transform="translate(342.76 652.813)" fill="none" stroke="#fff" stroke-width="1"/>
    <path id="Path" d="M3.1,0A3.1,3.1,0,1,1,0,3.1,3.1,3.1,0,0,1,3.1,0Z" transform="translate(356.659 662.178)" fill="#fff"/>
    <path id="Path-2" data-name="Path" d="M11.985,4.925a7.634,7.634,0,0,1-11.671,0A1.431,1.431,0,0,1,.176,3.341,6.794,6.794,0,0,1,6.15,0a6.794,6.794,0,0,1,5.974,3.34,1.431,1.431,0,0,1-.138,1.584Z" transform="translate(353.609 669.811)" fill="#fff"/>
  </g>
</svg>
