<svg xmlns="http://www.w3.org/2000/svg" width="23" height="23" viewBox="0 0 23 23">
  <g id="Group_2008" data-name="Group 2008" transform="translate(-260.4 -267.64)">
    <g id="Path_1137" data-name="Path 1137">
      <path id="Path_1137-2" data-name="Path 1137" d="M278.9,269.64h-1.5v-1.5a.5.5,0,0,0-.5-.5.508.508,0,0,0-.5.5v1.5h-9v-1.5a.5.5,0,0,0-.5-.5.508.508,0,0,0-.5.5v1.5h-1.5a4.507,4.507,0,0,0-4.5,4.5v12a4.507,4.507,0,0,0,4.5,4.5h14a4.507,4.507,0,0,0,4.5-4.5v-12A4.507,4.507,0,0,0,278.9,269.64Zm3.5,16.5a3.5,3.5,0,0,1-3.5,3.5h-14a3.5,3.5,0,0,1-3.5-3.5v-9.5h21Zm0-10.5h-21v-1.5a3.5,3.5,0,0,1,3.5-3.5h14a3.5,3.5,0,0,1,3.5,3.5Z" fill="#fff"/>
    </g>
    <g id="Ellipse_108" data-name="Ellipse 108">
      <circle id="Ellipse_108-2" data-name="Ellipse 108" cx="1" cy="1" r="1" transform="translate(270.9 281.14)" fill="#fff"/>
    </g>
    <g id="Ellipse_109" data-name="Ellipse 109">
      <circle id="Ellipse_109-2" data-name="Ellipse 109" cx="1" cy="1" r="1" transform="translate(265.9 281.14)" fill="#fff"/>
    </g>
    <g id="Ellipse_110" data-name="Ellipse 110">
      <circle id="Ellipse_110-2" data-name="Ellipse 110" cx="1" cy="1" r="1" transform="translate(275.9 281.14)" fill="#fff"/>
    </g>
  </g>
</svg>
