<svg xmlns="http://www.w3.org/2000/svg" width="26" height="26" viewBox="0 0 26 26">
  <g id="Group_1853" data-name="Group 1853" transform="translate(-1452.775 -168.775)">
    <rect id="Rectangle_740" data-name="Rectangle 740" width="24" height="24" rx="6" transform="translate(1453.775 169.775)" fill="none" stroke="#fff" stroke-miterlimit="10" stroke-width="2"/>
    <g id="enter" transform="translate(1459.266 175.166)">
      <path id="Path_1094" data-name="Path 1094" d="M6,11.265H18.107a2.1,2.1,0,0,0-.339-.463L13.739,6.773A1.039,1.039,0,1,1,15.208,5.3l4.031,4.029a4.155,4.155,0,0,1,0,5.875L15.21,19.237a1.039,1.039,0,1,1-1.469-1.469l4.029-4.029a2.088,2.088,0,0,0,.3-.4H6a1.039,1.039,0,1,1,0-2.077Z" transform="translate(-5.372 -6)" fill="#fff"/>
    </g>
  </g>
</svg>
