<svg xmlns="http://www.w3.org/2000/svg" xmlns:xlink="http://www.w3.org/1999/xlink" width="35.067" height="35.027" viewBox="0 0 35.067 35.027">
  <defs>
    <linearGradient id="linear-gradient" x1="2.21" y1="-0.527" x2="-2.77" y2="1.618" gradientUnits="objectBoundingBox">
      <stop offset="0" stop-color="#fff"/>
      <stop offset="1" stop-color="#92d9e8"/>
    </linearGradient>
  </defs>
  <path id="Path_106" data-name="Path 106" d="M1208.164,769.03a17.536,17.536,0,0,1,17.533,17.5h0v.036h0a17.533,17.533,0,0,1-35.067,0h0v-.036h0a17.532,17.532,0,0,1,17.533-17.5Zm-5.226,27.148,3.458-3.6-3.363-2.536,12.144-9.562-1.665,1.372c-1.959,1.612-5.877,4.838-7.83,6.463a18.833,18.833,0,0,0-1.936,1.66c.006.011.006.011,1.649,1.22s4.926,3.625,6.674,4.8,1.959,1.1,2.129,1.027a1.3,1.3,0,0,0,.411-.27c.112-.111.206-.253,1-3.315s2.281-9.044,3.037-12.228.78-3.572.693-3.836a.7.7,0,0,0-.5-.464c-.217-.057-.453-.034-4.61,1.391s-12.241,4.252-16.294,5.736-4.076,1.624-4.058,1.766.076.281,1.2.709,3.3,1.144,4.387,1.5,1.073.358,1.067.358-.006,0,2.487-1.355,7.478-4.065,9.971-5.42l2.492-1.355-.247.2h0l-14.4,8.27,2.118,7.462Zm19.967-9.634a14.739,14.739,0,1,0-4.317,10.4A14.7,14.7,0,0,0,1222.9,786.544Z" transform="translate(-1190.631 -769.03)" fill-rule="evenodd" fill="url(#linear-gradient)"/>
</svg>
