<svg xmlns="http://www.w3.org/2000/svg" width="27" height="27" viewBox="0 0 27 27">
  <g id="Group_2456" data-name="Group 2456" transform="translate(-345.688 -778.72)">
    <circle id="Ellipse_111" data-name="Ellipse 111" cx="13" cy="13" r="13" transform="translate(346.188 779.22)" fill="none" stroke="#fff" stroke-width="1"/>
    <path id="Path_1139" data-name="Path 1139" d="M207.1,396.316a1.056,1.056,0,0,0,.776,1.075,1.186,1.186,0,0,0,1.359-.3l10.822-11.318a1.093,1.093,0,0,0-.091-1.639,1.26,1.26,0,0,0-1.731.094l-8.685,9.084v-3.9a1.08,1.08,0,0,0-.358-.809,1.223,1.223,0,0,0-.874-.34,1.177,1.177,0,0,0-.863.334,1.106,1.106,0,0,0-.361.823Z" transform="translate(145.447 401.563)" fill="#fff" stroke="rgba(0,0,0,0)" stroke-width="1"/>
  </g>
</svg>
