<svg xmlns="http://www.w3.org/2000/svg" xmlns:xlink="http://www.w3.org/1999/xlink" width="41.181" height="33.562" viewBox="0 0 41.181 33.562">
  <defs>
    <linearGradient id="linear-gradient" x1="2.21" y1="-0.527" x2="-2.77" y2="1.618" gradientUnits="objectBoundingBox">
      <stop offset="0" stop-color="#fff"/>
      <stop offset="1" stop-color="#92d9e8"/>
    </linearGradient>
  </defs>
  <path id="Path_108" data-name="Path 108" d="M1270.868,788.362l.122.133.158.127a8.406,8.406,0,0,0,1.762,1.07c.136.062.714.265.782.321l.06.082a.208.208,0,0,1,.013.03.4.4,0,0,1,0,.189h-2.2a5.4,5.4,0,0,0-.813.011s.012-.024,0,.007l-.018.036a.7.7,0,0,0-.008.313c.011.209.013.1-.009.112.139,0,.133-.12.225.031l.034.17a.354.354,0,0,0,.029.248c.052.074.012.023.1.067l.147.08c.046.039.462.841.544.973a8.6,8.6,0,0,0,2.278,2.388,8.4,8.4,0,0,0,4.674,1.548,13.95,13.95,0,0,1-2.4,1.594,16.283,16.283,0,0,1-2.823,1.2,17.026,17.026,0,0,1-6.208.792c-.316-.017-.677-.075-.981-.07l.039.046a22.53,22.53,0,0,0,2.1,1.2,23.9,23.9,0,0,0,7.78,2.365,25.307,25.307,0,0,0,11.8-1.361,22.6,22.6,0,0,0,6.423-3.72c.309-.248.645-.537.908-.789.308-.3.582-.529.866-.83a25.061,25.061,0,0,0,3.008-3.744c.46-.711.841-1.361,1.249-2.141a14.745,14.745,0,0,0,1.035-2.334l.1-.169c.029-.07.042-.114.067-.18l.406-1.147c.17-.5.325-1.047.465-1.589a21.352,21.352,0,0,0,.635-3.54,32.124,32.124,0,0,0,.119-3.464l1.165-.909c.053-.1.723-.693.841-.809a16.633,16.633,0,0,0,2.177-2.666l-1.121.438a15.336,15.336,0,0,1-3.636.837,8.352,8.352,0,0,0,1.187-.884,9.635,9.635,0,0,0,1-1.047,8.224,8.224,0,0,0,1.439-2.7,5.835,5.835,0,0,0-.62.331,16.139,16.139,0,0,1-1.89.874,14.059,14.059,0,0,1-2.864.809,8.488,8.488,0,0,0-7.19-2.6c-.088.033-.7.118-.9.163a8.883,8.883,0,0,0-.88.255,8.481,8.481,0,0,0-5.627,8.927c.036.343.125.676.15,1a23.944,23.944,0,0,1-10.244-2.883,24.675,24.675,0,0,1-5.628-4.235l-1.167-1.271a3.232,3.232,0,0,0-.394-.443,8.423,8.423,0,0,0-1.078,3.186,9.594,9.594,0,0,0,.358,3.8.893.893,0,0,0,.012.447.3.3,0,0,1,.016.088c0,.1-.008.091-.05.134.007,0,.019,0,.023.007l.189.011a1.135,1.135,0,0,1,.059.489c.124.06.077,0,.224.059.065.211-.013.228.023.483l.248,0,0,.239.169.049c-.036.071-.07.078-.037.093v-.035c.184.032.1.032.124.418.23,0,.155-.03.177-.068a.3.3,0,0,0,.148.162c-.135-.012-.078.035-.059.142l.23.035.052.189c.029,0,.051-.051.116.035.086.115.044-.1.062.165l-2.025-.007c-.081,0-.143.03-.236.042l-.014.743c.042.137-.023.049.078.124a8.932,8.932,0,0,0,.976,3.307A7.889,7.889,0,0,0,1270.868,788.362Z" transform="translate(-1266.324 -770.058)" fill-rule="evenodd" fill="url(#linear-gradient)"/>
</svg>
