<svg xmlns="http://www.w3.org/2000/svg" xmlns:xlink="http://www.w3.org/1999/xlink" width="33.588" height="33.588" viewBox="0 0 33.588 33.588">
  <defs>
    <linearGradient id="linear-gradient" x1="2.21" y1="-0.527" x2="-2.77" y2="1.618" gradientUnits="objectBoundingBox">
      <stop offset="0" stop-color="#fff"/>
      <stop offset="1" stop-color="#92d9e8"/>
    </linearGradient>
  </defs>
  <path id="Path_105" data-name="Path 105" d="M965.293,770.224h23.383a5.118,5.118,0,0,1,5.1,5.1V798.71a5.117,5.117,0,0,1-5.1,5.1H965.293a5.117,5.117,0,0,1-5.1-5.1V775.326a5.118,5.118,0,0,1,5.1-5.1Zm5.849,25.457-.538-.994a10.962,10.962,0,0,0-2.22,1.286,1.658,1.658,0,0,0,.835.729,1.431,1.431,0,0,0,.513.47,12.007,12.007,0,0,0,4.012,1.893,6.3,6.3,0,0,0-.668-.773,8.69,8.69,0,0,1-.7-.822c-.239-.3-.417-.55-.643-.877-.19-.274-.385-.669-.594-.912Zm14.287.44.364-.282a9.944,9.944,0,0,0-2.543-1.345,10.991,10.991,0,0,1-1.433,2.489c-.8,1.148-1.134,1.314-1.756,2.116a11.477,11.477,0,0,0,2.265-.784,9.989,9.989,0,0,0,3.1-2.193Zm-9.229-1.841v-1.011a25.483,25.483,0,0,0-4.078.769,2.456,2.456,0,0,0,.523.964,10.009,10.009,0,0,0,1.59,2.225,7.51,7.51,0,0,0,1.965,1.815v-4.762Zm5.294.308.279-.609a6.418,6.418,0,0,0-1.869-.512,12.5,12.5,0,0,0-2.124-.214l.013,5.708.557-.489,2.486-2.849c.214-.34.421-.7.657-1.036Zm-5.295-5.361v-.962l-5.715,0a14.933,14.933,0,0,0,.365,2.38c.085.368.164.679.278,1.045.244.785.172.9.513.888a15.577,15.577,0,0,1,4.555-.894l0-2.459Zm13.061-.031.128-.941-4.456.058c-.2,2.652-.55,2.76-.991,4.722.328.108.4.233.747.246l2.176,1.322a12,12,0,0,0,2.4-5.407Zm-20.27.033-.09-.957-4.309.02a12.271,12.271,0,0,0,1.217,4.25,9.649,9.649,0,0,0,1.457,2.245,17.852,17.852,0,0,1,2.7-1.557,29.727,29.727,0,0,1-.98-4Zm14.259-.092.1-.875-5.571.016.014,3.232c.109.16.052.162.637.2a19.28,19.28,0,0,1,4.012.735,13.219,13.219,0,0,0,.808-3.305Zm-5.468-3.8,0,1.329.559.015,5.063,0-.244-2.412a2.646,2.646,0,0,0-.289-1.08l-.147-.824c-.76.157-1.481.424-2.3.584a24.816,24.816,0,0,1-2.637.313v2.076Zm-1.584-1.2,0-.916c-2.856-.147-3.379-.724-4.979-1.007-.519.839-.653,3.161-.79,4.261.187.394.081.115.23.174.266.1,5.226.031,5.54.029v-2.541Zm11.665-3.191-.563-.96c-1.015.495-1.9,1.408-3.1,1.728l.464,1.863.366,3.086.465.013,3.959-.005a12.241,12.241,0,0,0-.841-4.183l-.747-1.542Zm-18.33,1.127.194-.567a8.643,8.643,0,0,1-1.49-.788,16.463,16.463,0,0,0-1.387-.9,12,12,0,0,0-2.317,6.866l.631,0h3.683a24.561,24.561,0,0,1,.687-4.6Zm8.758-.45a17.331,17.331,0,0,0,3.839-.758,10.33,10.33,0,0,0-1.606-2.828,12.734,12.734,0,0,0-2.731-2.937l-.01,6.533.509-.01Zm-2.094-5.178-.008-1.441a13.974,13.974,0,0,0-4.409,5.7l.878.277a13.964,13.964,0,0,0,3.527.642l.013-5.182Zm9.916,2.343c.148-.1.134.166.112-.207-.233-.184-.388-.39-.622-.605a12.706,12.706,0,0,0-5.542-3.049,12.67,12.67,0,0,0,1,1.111,20.338,20.338,0,0,1,2.014,3.042,7.178,7.178,0,0,0,.583,1.143,9.73,9.73,0,0,0,2.458-1.434Zm-13.932-2.026a6.779,6.779,0,0,0,.736-.834c.163-.2.715-.78.8-.934a11.439,11.439,0,0,0-3.269,1.4,9.694,9.694,0,0,0-2.552,2.2,7.365,7.365,0,0,0,.788.468,6.424,6.424,0,0,0,1.588.947c.21-.238.7-1.305.9-1.649.3-.51.828-1.17,1.01-1.6Zm2.463-3.7-.139.069c-.3.119-1.518.348-2.45.7a14.067,14.067,0,0,0-9.112,13.547,19.533,19.533,0,0,0,.509,3.469,24.723,24.723,0,0,0,1.047,2.632c.507.962,1.054,1.59,1.493,2.368l1.522,1.548a14.05,14.05,0,0,0,22.577-15.485,19.433,19.433,0,0,0-1.194-2.386c-2.307-3.693-5.132-4.672-5.535-5.141-.3-.017-1.7-.674-2.261-.831a17.757,17.757,0,0,1-2.479-.586,12.349,12.349,0,0,1-2.089-.012A12.567,12.567,0,0,1,974.643,773.064Z" transform="translate(-960.191 -770.224)" fill-rule="evenodd" fill="url(#linear-gradient)"/>
</svg>
