<svg xmlns="http://www.w3.org/2000/svg" width="22.75" height="28.153" viewBox="0 0 22.75 28.153">
  <g id="Group_1859" data-name="Group 1859" transform="translate(-209.25 -867.347)">
    <path id="treatment" d="M18.708,4.264H18.5a3.632,3.632,0,0,0-3.418-2.417H12.667A3.632,3.632,0,0,0,9.248,4.264H9.042A6.049,6.049,0,0,0,3,10.306V22.958A6.049,6.049,0,0,0,9.042,29h9.667a6.049,6.049,0,0,0,6.042-6.042V10.306A6.049,6.049,0,0,0,18.708,4.264Z" transform="translate(206.75 866)" fill="none" stroke="#fff" stroke-miterlimit="10" stroke-width="1"/>
    <path id="treatment-2" data-name="treatment" d="M43.98,24.018H39.147a1.208,1.208,0,0,1,0-2.417H43.98a1.208,1.208,0,0,1,0,2.417Zm4.833-4.833H39.147a1.208,1.208,0,0,1,0-2.417h9.667a1.208,1.208,0,0,1,0,2.417Z" transform="translate(176.645 866)" fill="#fff"/>
    <rect id="Rectangle_741" data-name="Rectangle 741" width="9" height="6" rx="3" transform="translate(216 868)" fill="#fff"/>
  </g>
</svg>
