<svg xmlns="http://www.w3.org/2000/svg" width="27" height="28.733" viewBox="0 0 27 28.733">
  <g id="Group_2007" data-name="Group 2007" transform="translate(-348.5 -610.767)">
    <g id="Group_2006" data-name="Group 2006" transform="translate(56.969 346.817)">
      <path id="Path_1133" data-name="Path 1133" d="M316.6,268.573a1.167,1.167,0,0,1-1.171,1.171,4.1,4.1,0,0,1-1.482-.247l-.677.752a12.148,12.148,0,0,0-1.729-1.59l.7-.773a4.228,4.228,0,0,1-.333-1.665,1.176,1.176,0,0,1,2.352,0c0,.924.247,1.171,1.171,1.171A1.169,1.169,0,0,1,316.6,268.573Z" transform="translate(1.432 0.081)" fill="#fff"/>
      <path id="Path_1134" data-name="Path 1134" d="M305.425,265.131v1c-.4-.032-.806-.054-1.224-.054a9.6,9.6,0,0,0-1.117.054v-1a1.171,1.171,0,1,1,2.341,0Z" transform="translate(0.805)" fill="#fff"/>
      <path id="Path_1135" data-name="Path 1135" d="M297.226,268.616a12.613,12.613,0,0,0-1.74,1.568l-.623-.687a4.1,4.1,0,0,1-1.482.247,1.176,1.176,0,0,1,0-2.352c.924,0,1.171-.247,1.171-1.171a1.176,1.176,0,0,1,2.352,0,4.228,4.228,0,0,1-.333,1.665Z" transform="translate(0 0.081)" fill="#fff"/>
      <path id="Path_1136" data-name="Path 1136" d="M306.684,278.979a2.348,2.348,0,1,1-3.523-2.023v-5.021a1.174,1.174,0,1,1,2.348,0h0v5.022a2.338,2.338,0,0,1,1.174,2.024Z" transform="translate(0.724 0.504)" fill="#fff"/>
    </g>
    <circle id="Ellipse_107" data-name="Ellipse 107" cx="13" cy="13" r="13" transform="translate(349 613)" fill="none" stroke="#fff" stroke-width="1"/>
  </g>
</svg>
