<svg xmlns="http://www.w3.org/2000/svg" width="23" height="23" viewBox="0 0 23 23"><g transform="translate(-1019.999 -716.859)"><circle cx="11.5" cy="11.5" r="11.5" transform="translate(1019.999 716.859)" fill="#fff"/><path d="M11.5,2A9.5,9.5,0,1,0,21,11.5,9.511,9.511,0,0,0,11.5,2m0-2A11.5,11.5,0,1,1,0,11.5,11.5,11.5,0,0,1,11.5,0Z" transform="translate(1019.999 716.859)" fill="#ff4d4d"/><path d="M1.372-9.407V0H-1.092V-9.407Zm0-2.468a1.14,1.14,0,0,1-.364.854,1.176,1.176,0,0,1-.84.35,1.243,1.243,0,0,1-.9-.35,1.14,1.14,0,0,1-.364-.854A1.109,1.109,0,0,1-.728-12.7a1.243,1.243,0,0,1,.9-.35,1.176,1.176,0,0,1,.84.35A1.109,1.109,0,0,1,1.372-11.874Z" transform="translate(1031.358 734.859)" fill="#ff4d4d"/></g></svg>