<svg xmlns="http://www.w3.org/2000/svg" width="20.744" height="20.745" viewBox="0 0 20.744 20.745"><g transform="translate(-537.256 -919.827)"><path d="M24.372,14.693V22.1a2.47,2.47,0,0,1-2.47,2.47H6.1a2.47,2.47,0,0,1-2.47-2.47V14.693a2.47,2.47,0,0,1,2.47-2.47H8.261a1.452,1.452,0,0,1,1.422,1.067,4.445,4.445,0,0,0,8.634,0,1.452,1.452,0,0,1,1.422-1.067h1.813A2.569,2.569,0,0,1,24.372,14.693Z" transform="translate(533.628 916)" fill="#e67205"/><path d="M5.384.287l3.7,3.694a.988.988,0,0,1-.7,1.689H6.664V9.385a.988.988,0,0,1-.988.988H3.7a.988.988,0,0,1-.988-.988V5.671H.989a.988.988,0,0,1-.7-1.689L3.992.287A.988.988,0,0,1,5.384.287Z" transform="translate(542.94 919.827)" fill="#e67205"/><path d="M4.688,2.418,3.434,3.671H5.942L4.688,2.418M4.688,0a.985.985,0,0,1,.7.287l3.7,3.694a.988.988,0,0,1-.7,1.689H6.664V9.385a.988.988,0,0,1-.988.988H3.7a.988.988,0,0,1-.988-.988V5.671H.989a.988.988,0,0,1-.7-1.689L3.992.287A.985.985,0,0,1,4.688,0Z" transform="translate(542.94 919.827)" fill="#e67205"/></g></svg>