<svg xmlns="http://www.w3.org/2000/svg" width="7.022" height="8.87" viewBox="0 0 7.022 8.87">
  <path id="_25_Basket" data-name="25 Basket" d="M5.224,8.87H1.8A.924.924,0,0,1,.876,8L.554,2.033a.554.554,0,0,1,0-1.109H2.587a.924.924,0,0,1,1.848,0H6.468a.554.554,0,0,1,0,1.109L6.146,8A.924.924,0,0,1,5.224,8.87ZM4.435,2.957a.37.37,0,0,0-.369.369v3.7a.37.37,0,1,0,.739,0v-3.7A.37.37,0,0,0,4.435,2.957Zm-1.848,0a.37.37,0,0,0-.369.369v3.7a.37.37,0,1,0,.739,0v-3.7A.37.37,0,0,0,2.587,2.957Z" fill="#fff"/>
</svg>
