<svg xmlns="http://www.w3.org/2000/svg" width="25.558" height="20.3" viewBox="0 0 25.558 20.3">
  <g id="Group_1934" data-name="Group 1934" transform="translate(-1687.067 -702)">
    <path id="Combined_Shape" data-name="Combined Shape" d="M12.913,7.729,7.591,13.04a1.423,1.423,0,0,1-2.433-1V9.565H1.423A1.42,1.42,0,0,1,0,8.147V5.312A1.42,1.42,0,0,1,1.423,3.894H5.158V1.419a1.423,1.423,0,0,1,2.433-1l5.321,5.31a1.415,1.415,0,0,1,0,2Z" transform="translate(1712.625 718.88) rotate(180)" fill="#9e9e9e"/>
    <path id="Path_1087" data-name="Path 1087" d="M411.6,209.832a3.3,3.3,0,0,1-3.3,3.3h-7.963a3.3,3.3,0,0,1-3.3-3.3v-12.7a3.3,3.3,0,0,1,3.3-3.3H408.3a3.3,3.3,0,0,1,3.3,3.3" transform="translate(1290.527 508.67)" fill="none" stroke="#9e9e9e" stroke-linecap="round" stroke-linejoin="round" stroke-miterlimit="10" stroke-width="1"/>
  </g>
</svg>
