<svg id="Group_1877" data-name="Group 1877" xmlns="http://www.w3.org/2000/svg" width="30.939" height="21.404" viewBox="0 0 30.939 21.404">
  <path id="_3_Watch" data-name="3 Watch" d="M10.475,20.95A10.476,10.476,0,1,1,20.95,10.475,10.487,10.487,0,0,1,10.475,20.95Zm0-17.459a.874.874,0,0,0-.872.873V9.6a1.748,1.748,0,0,0,1.746,1.746h3.928a.873.873,0,1,0,0-1.746H11.348V4.364A.874.874,0,0,0,10.475,3.491Z" transform="translate(9.989 0)" fill="#ff4d4d"/>
  <g id="Group_1408" data-name="Group 1408" transform="translate(0 2.335)">
    <g id="Polygon_5" data-name="Polygon 5" fill="#fff">
      <path d="M 14.90133380889893 18.56979751586914 L 6.89272403717041 18.56979751586914 C 5.630664348602295 18.56979751586914 4.499004364013672 17.91811752319336 3.865534067153931 16.82654762268066 C 3.23207426071167 15.73497676849365 3.227704048156738 14.42908668518066 3.853864192962646 13.33330726623535 L 7.858174324035645 6.325767040252686 C 8.489173889160156 5.221516609191895 9.625194549560547 4.562256813049316 10.89702415466309 4.562256813049316 C 12.16885375976562 4.562256813049316 13.30487442016602 5.221516609191895 13.93587398529053 6.325767040252686 L 17.94018363952637 13.33330726623535 C 18.56634330749512 14.42908668518066 18.56197357177734 15.73497676849365 17.92851448059082 16.82654762268066 C 17.2950439453125 17.91811752319336 16.16339492797852 18.56979751586914 14.90133380889893 18.56979751586914 Z" stroke="none"/>
      <path d="M 10.89702415466309 5.062246322631836 C 9.806883811950684 5.062246322631836 8.83315372467041 5.627326965332031 8.292294502258301 6.573837280273438 L 4.287984848022461 13.58137702941895 C 3.751283645629883 14.52061653137207 3.755023956298828 15.63994693756104 4.297994613647461 16.57557678222656 C 4.840953826904297 17.51120758056641 5.810944557189941 18.06978607177734 6.892714500427246 18.06978607177734 L 14.90132427215576 18.06978607177734 C 15.98309421539307 18.06978607177734 16.95309448242188 17.51120758056641 17.49605369567871 16.57557678222656 C 18.03902435302734 15.63994693756104 18.04276466369629 14.52061653137207 17.50606346130371 13.58137702941895 L 13.50175380706787 6.573837280273438 C 12.96088409423828 5.627326965332031 11.98715400695801 5.062246322631836 10.89702415466309 5.062246322631836 M 10.89702415466309 4.062252044677734 C 12.2496166229248 4.062252044677734 13.60220909118652 4.734066009521484 14.36999416351318 6.07769775390625 L 18.37430381774902 13.08523654937744 C 19.89808464050293 15.75186729431152 17.97262382507324 19.06978607177734 14.90132427215576 19.06978607177734 L 6.892714500427246 19.06978607177734 C 3.82142448425293 19.06978607177734 1.895963668823242 15.75186729431152 3.419744491577148 13.08523654937744 L 7.424054145812988 6.07769775390625 C 8.191839218139648 4.734066009521484 9.544431686401367 4.062252044677734 10.89702415466309 4.062252044677734 Z" stroke="none" fill="#ff4d4d"/>
    </g>
    <path id="Path_1083" data-name="Path 1083" d="M2.634-11.485c0,.5-.005,1.66-.015,2.046s-.025.747-.045,1.082-.043.661-.068.977-.053.644-.083.985H1.672q-.045-.511-.1-.977t-.083-.977q-.03-.511-.053-1.09t-.023-1.33v-1.894H2.634ZM2.058-3.569a.7.7,0,0,1-.782-.8.819.819,0,0,1,.2-.624.821.821,0,0,1,.579-.188.793.793,0,0,1,.571.188.838.838,0,0,1,.2.624Q2.825-3.569,2.058-3.569Z" transform="translate(8.846 19.698)" fill="#ff4d4d" stroke="#ff4d4d" stroke-width="0.5"/>
  </g>
</svg>
