<svg xmlns="http://www.w3.org/2000/svg" width="16" height="16.714" viewBox="0 0 16 16.714">
  <g id="Combined_Shape" data-name="Combined Shape" transform="translate(-4.5 -4.857)" fill="none">
    <path d="M6.4,21.571a1.9,1.9,0,0,1-1.9-1.9c0-3.989,3.581-7.218,8-7.218s8,3.229,8,7.218a1.9,1.9,0,0,1-1.9,1.9ZM8.69,8.656a3.81,3.81,0,1,1,3.809,3.8A3.8,3.8,0,0,1,8.69,8.656Z" stroke="none"/>
    <path d="M 18.59566116333008 20.5713005065918 C 19.09448051452637 20.5713005065918 19.50030136108398 20.16790962219238 19.50030136108398 19.67206954956055 C 19.50030136108398 16.24353981018066 16.35983085632324 13.45421981811523 12.49967098236084 13.45421981811523 C 8.640040397644043 13.45421981811523 5.500000476837158 16.24353981018066 5.500000476837158 19.67206954956055 C 5.500000476837158 19.90837097167969 5.596170902252197 20.13980102539062 5.763860702514648 20.30701065063477 C 5.932300567626953 20.4749698638916 6.165850639343262 20.5713005065918 6.404640674591064 20.5713005065918 L 18.59566116333008 20.5713005065918 M 12.49967098236084 11.45421981811523 C 14.049241065979 11.45421981811523 15.30991077423096 10.19884014129639 15.30991077423096 8.655759811401367 C 15.30991077423096 7.112679958343506 14.049241065979 5.857300281524658 12.49967098236084 5.857300281524658 C 10.9506311416626 5.857300281524658 9.690390586853027 7.112679958343506 9.690390586853027 8.655759811401367 C 9.690390586853027 10.19884014129639 10.9506311416626 11.45421981811523 12.49967098236084 11.45421981811523 M 18.59566116333008 21.5713005065918 L 6.404640674591064 21.5713005065918 C 5.899680614471436 21.5713005065918 5.414880752563477 21.37123107910156 5.057760715484619 21.0151195526123 C 4.700640678405762 20.65901947021484 4.500000476837158 20.17559051513672 4.500000476837158 19.67206954956055 C 4.500000476837158 15.68311023712158 8.080801010131836 12.45421981811523 12.49967098236084 12.45421981811523 C 16.91950988769531 12.45421981811523 20.50030136108398 15.68311023712158 20.50030136108398 19.67206954956055 C 20.50030136108398 20.72124099731445 19.64686012268066 21.5713005065918 18.59566116333008 21.5713005065918 Z M 12.49967098236084 12.45421981811523 C 10.39631080627441 12.45421981811523 8.690390586853027 10.75411033630371 8.690390586853027 8.655759811401367 C 8.690390586853027 6.558380126953125 10.39631080627441 4.857300281524658 12.49967098236084 4.857300281524658 C 14.60399055480957 4.857300281524658 16.30990982055664 6.558380126953125 16.30990982055664 8.655759811401367 C 16.30990982055664 10.75411033630371 14.60399055480957 12.45421981811523 12.49967098236084 12.45421981811523 Z" stroke="none" fill="#666"/>
  </g>
</svg>
