<svg id="Group_2044" data-name="Group 2044" xmlns="http://www.w3.org/2000/svg" width="22.28" height="31.642" viewBox="0 0 22.28 31.642">
  <path id="Path_1148" data-name="Path 1148" d="M52.924,135.316a7.294,7.294,0,0,1,6.546,4.632,7.743,7.743,0,0,1-1.632,8.6c-1.221,1.353-2.379,2.763-3.565,4.148-.035.041-.064.086-.1.128a.872.872,0,0,1-1.264.254.848.848,0,0,1-.1-1.28c1.085-1.33,2.207-2.63,3.294-3.958a13.078,13.078,0,0,0,1.668-2.21,5.949,5.949,0,0,0-1.827-7.475,6.011,6.011,0,0,0-7.723.584c-1.213,1.212-2.318,2.532-3.47,3.806-.108.119-.2.253-.305.374a.892.892,0,0,1-1.31.227.83.83,0,0,1-.031-1.281c1.428-1.6,2.81-3.251,4.345-4.742,1.345-1.306,3.088-1.822,5.477-1.8" transform="translate(-42.806 -121.606)" fill="#75c9db"/>
  <path id="Path_1149" data-name="Path 1149" d="M58.614,159.194c2.216.034,3.732,1.027,4.351,2.634a4.212,4.212,0,0,1-.985,4.75,46.792,46.792,0,0,0-4.67,5.6,1.867,1.867,0,0,1-.465.508.771.771,0,0,1-1.03-.113.793.793,0,0,1-.084-1.119c.743-1.008,1.465-2.034,2.264-3,.913-1.1,1.889-2.15,2.857-3.2a2.6,2.6,0,0,0,0-3.591,2.5,2.5,0,0,0-3.611-.026c-1.639,1.793-3.185,3.672-4.768,5.518-.128.149-.226.322-.349.476a.856.856,0,0,1-1.221.26.845.845,0,0,1-.157-1.272c.91-1.2,1.82-2.392,2.784-3.545.768-.919,1.587-1.8,2.434-2.646a3.937,3.937,0,0,1,2.65-1.234" transform="translate(-49.411 -142.058)" fill="#75c9db"/>
  <path id="Path_1150" data-name="Path 1150" d="M53.048,87.576a14.255,14.255,0,0,1,11.783,7.006,1.317,1.317,0,0,1,.149.986c-.22.66-1.06.672-1.495.067-.459-.638-.876-1.313-1.386-1.907a13.03,13.03,0,0,0-17.646-1.794c-.1.077-.2.157-.3.226a.867.867,0,0,1-1.2-.126.8.8,0,0,1,.174-1.221,30.623,30.623,0,0,1,3.385-2.041,14.368,14.368,0,0,1,6.539-1.2" transform="translate(-42.742 -80.716)" fill="#75c9db"/>
  <path id="Path_1155" data-name="Path 1155" d="M52.343,111.563A11.225,11.225,0,0,1,62.868,118.7a.946.946,0,0,1-.169,1.175.865.865,0,0,1-1.4-.479,9.429,9.429,0,0,0-2.483-3.646,9.523,9.523,0,0,0-13,.191c-.475.46-.931.942-1.4,1.407a.885.885,0,0,1-1.323.106.867.867,0,0,1,.076-1.285,13.238,13.238,0,0,1,5.239-3.9,11.459,11.459,0,0,1,3.937-.706" transform="translate(-42.827 -101.261)" fill="#75c9db"/>
  <path id="Path_1156" data-name="Path 1156" d="M56.85,63.069a18.426,18.426,0,0,1,12.613,4.718,1.7,1.7,0,0,1,.465.574.693.693,0,0,1-.279.938,1.318,1.318,0,0,1-.98.028,6.156,6.156,0,0,1-.991-.81,16.133,16.133,0,0,0-17.539-2.044c-.081.037-.16.08-.241.117a.873.873,0,0,1-1.247-.337.863.863,0,0,1,.479-1.194,16.577,16.577,0,0,1,4.958-1.671c1.074-.175,2.164-.252,2.764-.319" transform="translate(-47.72 -59.725)" fill="#75c9db"/>
  <path id="Path_1157" data-name="Path 1157" d="M95.212,42.435a.878.878,0,0,1-1.293.767c-1.124-.408-2.235-.868-3.386-1.182a19.125,19.125,0,0,0-7.772-.409.858.858,0,0,1-1.084-.69c-.075-.511.222-.872.815-.993a1.846,1.846,0,0,1,.318-.052c1.625-.038,3.256-.178,4.874-.081a19.524,19.524,0,0,1,6.864,1.8.937.937,0,0,1,.665.839" transform="translate(-76.082 -39.762)" fill="#75c9db"/>
  <path id="Path_1158" data-name="Path 1158" d="M66.9,191.39c-.294-.221-.639-.352-.725-.58a1.187,1.187,0,0,1,.058-.937,25.465,25.465,0,0,1,1.834-2.511c1.174-1.4,2.4-2.746,3.616-4.108a.82.82,0,0,1,1.111-.194.772.772,0,0,1,.376.921,1.3,1.3,0,0,1-.333.534,50.117,50.117,0,0,0-5.163,6.236,4.033,4.033,0,0,1-.774.638" transform="translate(-62.758 -162.384)" fill="#75c9db"/>
  <path id="Path_1159" data-name="Path 1159" d="M149.474,212.723c-.248-.216-.584-.377-.676-.627a1.165,1.165,0,0,1,.122-.88,4.578,4.578,0,0,1,.824-.912,9.285,9.285,0,0,0,2.285-3.524c.019-.05.034-.1.055-.151a.859.859,0,1,1,1.6.612,11.424,11.424,0,0,1-2.842,4.429,8.642,8.642,0,0,1-.65.639,5.624,5.624,0,0,1-.718.412" transform="translate(-133.547 -182.152)" fill="#75c9db"/>
  <path id="Path_1160" data-name="Path 1160" d="M177.254,183.467a.858.858,0,0,1-.834.87.89.89,0,0,1-.87-.847.83.83,0,0,1,.846-.846.809.809,0,0,1,.858.824" transform="translate(-156.497 -162.144)" fill="#75c9db"/>
</svg>
