<svg xmlns="http://www.w3.org/2000/svg" width="27.84" height="27.84" viewBox="0 0 27.84 27.84">
  <g id="Group_1414" data-name="Group 1414" transform="translate(-1398.089 -691.801)">
    <path id="_3_Watch" data-name="3 Watch" d="M13.919,27.84A13.921,13.921,0,1,1,27.84,13.919,13.936,13.936,0,0,1,13.919,27.84Zm0-23.2A1.161,1.161,0,0,0,12.76,5.8v6.96a2.322,2.322,0,0,0,2.32,2.32H20.3a1.16,1.16,0,1,0,0-2.32H15.08V5.8A1.162,1.162,0,0,0,13.919,4.639Z" transform="translate(1398.089 691.801)" fill="#666"/>
    <path id="_3_Watch" data-name="3 Watch" d="M13.919,27.84A13.921,13.921,0,1,1,27.84,13.919,13.936,13.936,0,0,1,13.919,27.84Zm0-23.2A1.161,1.161,0,0,0,12.76,5.8v6.96a2.322,2.322,0,0,0,2.32,2.32H20.3a1.16,1.16,0,1,0,0-2.32H15.08V5.8A1.162,1.162,0,0,0,13.919,4.639Z" transform="translate(1398.089 691.801)" fill="#666"/>
  </g>
</svg>
