<svg xmlns="http://www.w3.org/2000/svg" width="19" height="19" viewBox="0 0 19 19">
  <g id="Group_2033" data-name="Group 2033" transform="translate(-53.99 -4.198)">
    <circle id="Ellipse_114" data-name="Ellipse 114" cx="9.5" cy="9.5" r="9.5" transform="translate(53.99 4.198)" fill="#183573"/>
    <path id="Path_1094" data-name="Path 1094" d="M15.127,9.406H6.614a1.474,1.474,0,0,1,.238-.326L9.685,6.247A.73.73,0,1,0,8.652,5.214L5.817,8.047a2.922,2.922,0,0,0,0,4.131l2.834,2.833A.73.73,0,1,0,9.684,13.98L6.85,11.146a1.468,1.468,0,0,1-.213-.279h8.49a.73.73,0,1,0,0-1.461Z" transform="translate(53.019 3.45)" fill="#fff"/>
  </g>
</svg>
