<svg xmlns="http://www.w3.org/2000/svg" width="29.572" height="35.506" viewBox="0 0 29.572 35.506">
  <path id="Path_1161" data-name="Path 1161" d="M27.92,29.59a9.552,9.552,0,0,0-4.538-4.87,23.917,23.917,0,0,0-4.78-1.949c-.11-.031-.269-.155-.276-.245-.038-.509-.084-1.016.43-1.382a2.8,2.8,0,0,0,.572-.7,16.661,16.661,0,0,0,1.781-3.234.652.652,0,0,1,.327-.316,1.573,1.573,0,0,0,.848-.729c.619-1.182,1.244-2.36,1.848-3.549A1.9,1.9,0,0,0,24,10.633a2.206,2.206,0,0,0-1.4-.951c.01-.05.016-.091.027-.131a14.958,14.958,0,0,0,.4-4.206A5.368,5.368,0,0,0,19.07.178C18.847.116,18.622.06,18.4,0H12.8c-.4.086-.812.154-1.21.261a7.812,7.812,0,0,0-5.8,8.219c.031.4.1.8.147,1.209-.06.024-.12.051-.182.072a2.037,2.037,0,0,0-1.237,3.014C5.1,13.9,5.692,15.023,6.279,16.145a1.291,1.291,0,0,0,.807.716.582.582,0,0,1,.416.418A12.987,12.987,0,0,0,9.789,21.1a1.654,1.654,0,0,1,.483,1.339.313.313,0,0,1-.273.338,22.342,22.342,0,0,0-3.951,1.5,10.894,10.894,0,0,0-4.464,3.578A9.371,9.371,0,0,0,.005,33.622c.02.653.238.884.9.884H11.013c.081,0,.163,0,.244,0,3.517,0,13.1,0,16.525,0a.687.687,0,0,0,.78-.692,10.009,10.009,0,0,0-.642-4.223M8.26,4.191A6.381,6.381,0,0,1,13.5,1.365a1.75,1.75,0,0,1,1.251.484,1.286,1.286,0,0,0,1.752.025,2.041,2.041,0,0,1,1.913-.441,3.945,3.945,0,0,1,3.222,3.923c0,1-.045,1.991-.069,2.986l-.156.072a1.233,1.233,0,0,0-.118-.217A4.433,4.433,0,0,0,19.8,7.013a2.143,2.143,0,0,1-1.285-1.9c-.034-.484-.324-.785-.721-.77s-.641.32-.68.81A3.114,3.114,0,0,1,15.3,7.9a2.977,2.977,0,0,1-3.237-.313,3.473,3.473,0,0,0-3.528-.621,9.67,9.67,0,0,0-1.4.826,6.245,6.245,0,0,1,1.123-3.6M8.571,16.25c-.244-.647-.376-.739-1.045-.7q-.916-1.747-1.838-3.5a.614.614,0,0,1,.1-.747.684.684,0,0,1,.762-.206c.728.231,1.055-.008,1.082-.778a2.141,2.141,0,0,1,1.87-2.2,2.073,2.073,0,0,1,1.625.494,4.176,4.176,0,0,0,1.935.886,4.451,4.451,0,0,0,4.668-1.97l.123-.178c.56.362,1.068.7,1.583,1.022A3.086,3.086,0,0,1,20.875,10.4c.167.77.41.918,1.145.688a.675.675,0,0,1,.784.229.644.644,0,0,1,.069.753c-.583,1.111-1.161,2.225-1.749,3.334a.294.294,0,0,1-.216.139c-.5-.016-.677.089-.853.568a15.211,15.211,0,0,1-1.865,3.562,4.7,4.7,0,0,1-7.816-.015,15.211,15.211,0,0,1-1.8-3.407m7.056,9.313a2.507,2.507,0,0,1-2.852-.108,2.8,2.8,0,0,1-1.081-2.908,6.191,6.191,0,0,0,5.2,0,2.8,2.8,0,0,1-1.268,3.02M27.161,33.15h-.418c-3.1,0-12.464,0-15.564,0h-.168q-4.6,0-9.2,0H1.391A7.734,7.734,0,0,1,4.465,26.8a14.4,14.4,0,0,1,3.363-1.818c.816-.332,1.652-.613,2.477-.916.85,2.192,2.046,3.21,3.853,3.223a4,4,0,0,0,4.1-3.174c.07.015.136.025.2.044A21.66,21.66,0,0,1,23.2,26.2a7.68,7.68,0,0,1,3.536,4.249,7.184,7.184,0,0,1,.429,2.7" transform="translate(0.501 0.499)" fill="#75c9db" stroke="rgba(0,0,0,0)" stroke-width="1"/>
</svg>
