<svg xmlns="http://www.w3.org/2000/svg" width="31.505" height="32.004" viewBox="0 0 31.505 32.004">
  <g id="Group_2448" data-name="Group 2448" transform="translate(-51.728 -403.771)">
    <path id="Path_1131" data-name="Path 1131" d="M5.287,27H27.3a4.147,4.147,0,0,0,3.454-1.916,4.753,4.753,0,0,0,.513-4.116L27.26,9.141A11.847,11.847,0,0,0,15.984,0h0A11.9,11.9,0,0,0,4.561,9.774l-3.3,11.4a4.746,4.746,0,0,0,.637,4A4.139,4.139,0,0,0,5.287,27Z" transform="translate(51.182 404.271)" fill="none" stroke="#e67205" stroke-width="1"/>
    <path id="Path_1132" data-name="Path 1132" d="M7.1,20a5,5,0,0,0,9.8,0Z" transform="translate(55.657 411.27)" fill="none" stroke="#e67205" stroke-linecap="round" stroke-linejoin="round" stroke-width="1"/>
  </g>
</svg>
