<svg xmlns="http://www.w3.org/2000/svg" width="30.068" height="29.895" viewBox="0 0 30.068 29.895"><g transform="translate(0.666 0.5)"><path d="M14.439,28.9h0a14.431,14.431,0,0,1-7.631-2.181L1.929,28.778a1.376,1.376,0,0,1-1.8-1.8L2.19,22.1A14.448,14.448,0,0,1,14.43,0h.01a14.448,14.448,0,1,1,0,28.9Zm-6.2-12.727a1.376,1.376,0,1,0,0,2.752h8.944a1.376,1.376,0,0,0,0-2.752Zm0-6.192a1.376,1.376,0,1,0,0,2.752H20.622a1.376,1.376,0,1,0,0-2.752Z" transform="translate(0 0)" fill="#37b3b8" stroke="rgba(0,0,0,0)" stroke-width="1"/></g></svg>