<svg xmlns="http://www.w3.org/2000/svg" width="30.446" height="33.572" viewBox="0 0 30.446 33.572"><g transform="translate(-536.756 -916.202)"><path d="M29.446,3.974v11.92a3.762,3.762,0,0,1-3.506,3.973H3.506A3.762,3.762,0,0,1,0,15.894V3.974A3.762,3.762,0,0,1,3.506,0H6.576A2.115,2.115,0,0,1,8.6,1.717a6.519,6.519,0,0,0,6.128,5.445,6.519,6.519,0,0,0,6.128-5.445A2.115,2.115,0,0,1,22.87,0h2.573A3.854,3.854,0,0,1,29.446,3.974Z" transform="translate(537.256 929.407)" fill="#37b3b8" stroke="rgba(0,0,0,0)" stroke-width="1"/><path d="M8.663.462l5.952,5.944a1.589,1.589,0,0,1-1.12,2.718H10.722V15.1a1.589,1.589,0,0,1-1.589,1.589H5.953A1.589,1.589,0,0,1,4.364,15.1V9.124H1.591A1.589,1.589,0,0,1,.47,6.406L6.422.462A1.589,1.589,0,0,1,8.663.462Z" transform="translate(544.436 916.827)" fill="#37b3b8" stroke="rgba(0,0,0,0)" stroke-width="1"/></g></svg>