<svg xmlns="http://www.w3.org/2000/svg" width="22" height="22" viewBox="0 0 22 22"><g transform="translate(0.215 0.102)"><rect width="22" height="22" transform="translate(-0.215 -0.102)" fill="none"/><path d="M10.129,13.812a10.8,10.8,0,0,1-6.193-1.937A10.9,10.9,0,0,1,0,6.906a10.882,10.882,0,0,1,20.257,0,10.9,10.9,0,0,1-3.935,4.969A10.8,10.8,0,0,1,10.129,13.812Zm0-11.51a4.6,4.6,0,1,0,4.6,4.6A4.609,4.609,0,0,0,10.129,2.3Zm0,7.366a2.763,2.763,0,1,1,2.763-2.763A2.766,2.766,0,0,1,10.129,9.669Z" transform="translate(0 3.975)" fill="#e67205"/></g></svg>