<svg xmlns="http://www.w3.org/2000/svg" width="136.1" height="49.993" viewBox="0 0 136.1 49.993"><g transform="translate(0.75 0)"><g transform="translate(0 0)"><path d="M1063.023,172.459a2.474,2.474,0,1,1-2.474,2.475A2.474,2.474,0,0,1,1063.023,172.459Z" transform="translate(-959.871 -132.122)" fill="#4af3f8" fill-rule="evenodd"/><path d="M1068.991,172.459a2.474,2.474,0,1,1-2.474,2.475A2.474,2.474,0,0,1,1068.991,172.459Z" transform="translate(-959.852 -132.122)" fill="#4af3f8" fill-rule="evenodd"/><path d="M968.321,164.96h15.423q4.7,0,4.7-4.92v-3.682h3.247v3.624c0,5.551-2.668,8.341-8,8.341H968.378q-4.046,0-6.119-2.074t-2.068-6.19V156.3h3.254v3.74c0,3.271,1.627,4.92,4.876,4.92Zm21.774,8.092h-1.308v3.273l1.346-.019c3.459-.049,6.11-.916,7.926-2.654s2.731-4.224,2.731-7.422v-10l-3.254.019v9.98a6.532,6.532,0,0,1-1.908,5.073,7.925,7.925,0,0,1-5.533,1.749Zm26.383-4.729a7.9,7.9,0,0,1-2.776,6.413c-1.847,1.541-4.531,2.316-8.028,2.316h-1.385v-3.286h1.27a10.022,10.022,0,0,0,5.743-1.384,4.616,4.616,0,0,0,2-4.021v-.038h-3.024q-6.5,0-6.509-6.336a9.673,9.673,0,0,1,.408-2.878,6.784,6.784,0,0,1,1.206-2.284,5.377,5.377,0,0,1,2.042-1.512,7.027,7.027,0,0,1,2.834-.543,5.762,5.762,0,0,1,4.588,1.888,7.634,7.634,0,0,1,1.633,5.156v3.146h2.636c.312,0-.835.524-.835,1.551v.2c0,1.065,1.14,1.608.835,1.608Zm-9.59-6.413c0,2.029,1.123,3.051,3.37,3.051h3.063V161.8a4.272,4.272,0,0,0-.83-2.847,2.891,2.891,0,0,0-2.31-.969,2.976,2.976,0,0,0-2.45,1.033,4.483,4.483,0,0,0-.843,2.89Zm12.06,3.051c-.313,0-.466.517-.466,1.551v.2c0,1.072.163,1.608.466,1.608h6.479a4.3,4.3,0,0,0,2.519-.619,4.684,4.684,0,0,0,2.032-1.921,5.242,5.242,0,0,0,2.093,1.921,18.314,18.314,0,0,0,5.041.619h.4c.282,0,.427-.541.427-1.608v-.2c0-1.029-.14-1.551-.427-1.551h-.414c-1.378,0-4.129-.307-4.722-.893a3.754,3.754,0,0,1-.9-2.757v-4.818h-3.2v4.818c0,1.238.075,2.158-.634,2.75s-.548.9-2.118.9Zm44.065,0c-.306,0-.465.517-.465,1.551v.2c0,1.072.159,1.608.465,1.608h4.505a10.057,10.057,0,0,0,3.835-.619,5.779,5.779,0,0,0,2.469-1.921,5.226,5.226,0,0,0,2.093,1.921,7.426,7.426,0,0,0,3.287.619h.4c.287,0,.428-.536.428-1.608v-.2c0-1.034-.141-1.551-.428-1.551h-.408a4.114,4.114,0,0,1-2.974-.893,3.716,3.716,0,0,1-.9-2.757v-4.818h-3.2v4.818a3.38,3.38,0,0,1-1.072,2.75,5.324,5.324,0,0,1-3.433.9Zm16.393,0h5.3a4.251,4.251,0,0,0,2.866-.8,3.619,3.619,0,0,0,.906-2.808v-5.495h3.255v5.514q0,6.958-7.014,6.955h-5.309c-.306,0-.465-.536-.465-1.608v-.2C1078.941,165.477,1079.1,164.96,1079.406,164.96Zm-42.111,0h11.552q4.671,0,4.671-2.508c0-.7-1.088-1.87-2.862-3.008l-2.292-1.47c-2.257-2.081,7.135-3.849,10.474-8.222l-7.531,6.4,7.11,5.913c1.938,1.611,3.1,2.9,4.34,2.9h.446c.287,0,.428.517.428,1.551v.2c0,1.072-.141,1.608-.428,1.608h-.281q-3.8,0-6.541-3.758l-.038-.058c-.849,2.546-3.368,3.816-7.536,3.816H1037.3" transform="translate(-960.191 -132.195)" fill="#04165d" fill-rule="evenodd"/><path d="M1005.675,177.8h-2.135v-4.786h2.02a9.348,9.348,0,0,0,5.315-1.25,3.722,3.722,0,0,0,1.631-2.693h-2.23c-4.749,0-7.259-2.45-7.259-7.086a10.423,10.423,0,0,1,.442-3.1,7.53,7.53,0,0,1,1.341-2.535,6.107,6.107,0,0,1,2.323-1.725,7.789,7.789,0,0,1,3.134-.605,6.492,6.492,0,0,1,5.154,2.147,8.36,8.36,0,0,1,1.817,5.648v2.4h8.294a3.168,3.168,0,0,0,.929-.087c.075-.028.115-.065.27-.224a5.389,5.389,0,0,1,.439-.414c.358-.3.371-.81.366-1.845,0-.107,0-.217,0-.329v-5.568h4.7v5.568a3.067,3.067,0,0,0,.674,2.22,4.363,4.363,0,0,0,1.712.47,17.656,17.656,0,0,0,2.486.209h11.755c3.921,0,3.921-1.323,3.921-1.758-.019-.249-.679-1.2-2.517-2.376l-2.347-1.505-.048-.044a1.558,1.558,0,0,1-.574-1.4c.171-1.212,1.779-2.019,4.214-3.241,1.15-.577,2.438-1.223,3.627-1.963l8.542-7.256-4.231,5.539a12.915,12.915,0,0,1-3.425,2.932l-3.536,3,6.424,5.342c.4.334.763.647,1.111.95,1.187,1.03,2.045,1.774,2.749,1.774h4.855a4.677,4.677,0,0,0,2.953-.726,2.663,2.663,0,0,0,.8-2.174v-5.568h4.7v5.568a3.042,3.042,0,0,0,.675,2.221l.005.005a3.5,3.5,0,0,0,2.443.673h5.513a3.6,3.6,0,0,0,2.37-.616,2.977,2.977,0,0,0,.652-2.246V155.1h4.755v6.264a7.789,7.789,0,0,1-1.974,5.75,7.922,7.922,0,0,1-5.789,1.956H1079.2a8.072,8.072,0,0,1-3.621-.7,5.7,5.7,0,0,1-1.8-1.4,6.492,6.492,0,0,1-2.142,1.423,10.69,10.69,0,0,1-4.12.675h-4.595a8.322,8.322,0,0,1-6.413-3.146c-1.273,2.089-3.856,3.146-7.7,3.146h-11.7c-1.056,0-4.29-.165-5.372-.7a5.7,5.7,0,0,1-1.758-1.35,4.092,4.092,0,0,1-1.752,1.371c-.209.086-.367.161-.519.233a4.254,4.254,0,0,1-2.284.442h-8.222a8.457,8.457,0,0,1-3.023,6.239C1012.2,176.965,1009.34,177.8,1005.675,177.8Zm-.635-1.5h.635c3.3,0,5.843-.721,7.547-2.142a7.123,7.123,0,0,0,2.506-5.837v-.75h1.973a2.238,2.238,0,0,1-.171-.858v-.2a2.128,2.128,0,0,1,.156-.8h-1.958v-3.9a6.923,6.923,0,0,0-1.45-4.665,5,5,0,0,0-4.021-1.629,6.306,6.306,0,0,0-2.534.48,4.624,4.624,0,0,0-1.761,1.3,6.036,6.036,0,0,0-1.071,2.033,8.927,8.927,0,0,0-.374,2.654c0,3.811,1.83,5.586,5.759,5.586h3.774v.788a5.333,5.333,0,0,1-2.318,4.636,10.755,10.755,0,0,1-6.173,1.519h-.52Zm75.7-8.73h3.978c4.273,0,6.264-1.972,6.264-6.205V156.6h-1.755v4.744a4.319,4.319,0,0,1-1.159,3.369,4.909,4.909,0,0,1-3.364.992h-3.962a8.016,8.016,0,0,1,.035.8v.2A8.421,8.421,0,0,1,1080.738,167.573Zm-16.393,0h3.174a9.4,9.4,0,0,0,3.547-.561,5.061,5.061,0,0,0,2.157-1.678l.645-.863.585.9a4.51,4.51,0,0,0,1.793,1.654,5.631,5.631,0,0,0,1.983.5,7.834,7.834,0,0,1-.037-.816v-.2a7.073,7.073,0,0,1,.045-.851,4.156,4.156,0,0,1-2.546-1.058,4.437,4.437,0,0,1-1.123-3.291v-4.068h-1.7v4.068a4.11,4.11,0,0,1-1.34,3.324,5.961,5.961,0,0,1-3.915,1.075h-3.266a8.013,8.013,0,0,1,.035.8v.2A8.384,8.384,0,0,1,1064.344,167.573Zm-25.7,0h10.165c3.851,0,6.083-1.081,6.824-3.3l.49-1.468.877,1.336a7.594,7.594,0,0,0,4.831,3.346c-.022-.225-.032-.48-.032-.768v-.2a6.654,6.654,0,0,1,.059-.956,9.688,9.688,0,0,1-2.83-1.986c-.343-.3-.7-.6-1.087-.929l-7.705-6.407c-.2.113-.39.223-.559.33-.695.438-.86.68-.9.754a.5.5,0,0,0,.056.067l2.229,1.429c.964.619,3.207,2.211,3.207,3.639a2.762,2.762,0,0,1-1.563,2.542,8.251,8.251,0,0,1-3.858.716h-10.2a7.976,7.976,0,0,1,.035.8v.2A8.209,8.209,0,0,1,1038.645,167.573Zm-8.622-3.1.584.9a4.516,4.516,0,0,0,1.793,1.655,18.659,18.659,0,0,0,4.711.543h.021a5.6,5.6,0,0,0,.051-.858v-.2a5.445,5.445,0,0,0-.046-.8h-.045a19.248,19.248,0,0,1-2.774-.236,4.359,4.359,0,0,1-2.475-.873,4.458,4.458,0,0,1-1.122-3.29v-4.068h-1.7v4.068c0,.109,0,.216,0,.32.006,1.152.012,2.24-.9,3.005a3.989,3.989,0,0,0-.323.307c-.518.533-.889.767-2.275.767h-6a2.828,2.828,0,0,0-.268.277c-.011.136-.018.308-.018.523v.2c0,.235.008.42.021.566a2.788,2.788,0,0,0,.27.292h5.9a2.863,2.863,0,0,0,1.639-.3c.155-.074.347-.165.6-.267a3.4,3.4,0,0,0,1.505-1.393l.21-.283Zm-41.986,12.615V172.3H990.1a7.248,7.248,0,0,0,5.026-1.552,5.772,5.772,0,0,0,1.664-4.52V155.505l4.754-.028V166.23c0,3.4-1,6.079-2.962,7.963-1.93,1.848-4.767,2.811-8.434,2.863Zm1.5-3.284v1.763l.586-.008c3.276-.047,5.771-.87,7.418-2.446s2.5-3.9,2.5-6.88v-9.244l-1.754.01v9.234a7.271,7.271,0,0,1-2.152,5.627A8.668,8.668,0,0,1,990.1,173.8Zm-5.844-4.729H968.378c-2.9,0-5.135-.772-6.651-2.294s-2.286-3.784-2.286-6.719v-4.509H964.2v4.49a4.357,4.357,0,0,0,1,3.159,4.254,4.254,0,0,0,3.123,1.011h15.423a3.97,3.97,0,0,0,2.981-1,4.483,4.483,0,0,0,.966-3.172v-4.432h4.747v4.374c0,2.963-.743,5.241-2.209,6.771S986.556,169.073,983.693,169.073Zm-22.752-12.022v3.009c0,2.524.622,4.428,1.849,5.661s3.1,1.853,5.588,1.853h15.315c2.438,0,4.273-.625,5.454-1.858s1.792-3.17,1.792-5.733v-2.874h-1.747v2.932a5.891,5.891,0,0,1-1.381,4.207,5.383,5.383,0,0,1-4.066,1.462H968.321a5.665,5.665,0,0,1-4.189-1.455,5.767,5.767,0,0,1-1.437-4.214v-2.99Zm53.129,8.66h-3.813c-2.657,0-4.12-1.35-4.12-3.8a5.21,5.21,0,0,1,1.01-3.362,3.694,3.694,0,0,1,3.033-1.311,3.654,3.654,0,0,1,2.88,1.231,5,5,0,0,1,1.01,3.335Zm-3.89-6.974a2.241,2.241,0,0,0-1.867.755,3.781,3.781,0,0,0-.675,2.418c0,1.613.783,2.3,2.62,2.3h2.313V161.8a3.59,3.59,0,0,0-.65-2.359A2.147,2.147,0,0,0,1010.18,158.736Z" transform="translate(-960.191 -132.195)" fill="#04165d"/><path d="M1039.569,165.657a2.816,2.816,0,0,0,1.955,2.876,2.873,2.873,0,0,0,3.426-.812l27.268-30.284a3.043,3.043,0,0,0,.82-2.241,3,3,0,0,0-1.049-2.143,2.965,2.965,0,0,0-2.217-.8,3.028,3.028,0,0,0-2.144,1.048l-21.884,24.306,0-10.427a3.091,3.091,0,0,0-3.1-3.077,2.871,2.871,0,0,0-2.173.895,3.042,3.042,0,0,0-.91,2.2Z" transform="translate(-959.938 -132.251)" fill="#4af3f8" fill-rule="evenodd"/><path d="M1086.683,149.354a2.474,2.474,0,1,1-2.474,2.475A2.474,2.474,0,0,1,1086.683,149.354Z" transform="translate(-959.795 -133.562)" fill="#4af3f8" fill-rule="evenodd"/><path d="M1092.651,149.354a2.474,2.474,0,1,1-2.474,2.475A2.474,2.474,0,0,1,1092.651,149.354Z" transform="translate(-959.776 -133.562)" fill="#4af3f8" fill-rule="evenodd"/><path d="M1019.423,172.459a2.474,2.474,0,1,1-2.474,2.475A2.474,2.474,0,0,1,1019.423,172.459Z" transform="translate(-960.01 -132.122)" fill="#4af3f8" fill-rule="evenodd"/><path d="M1025.392,172.459a2.474,2.474,0,1,1-2.474,2.475A2.474,2.474,0,0,1,1025.392,172.459Z" transform="translate(-959.991 -132.122)" fill="#4af3f8" fill-rule="evenodd"/><path d="M973.345,149.354a2.474,2.474,0,1,1-2.475,2.475A2.474,2.474,0,0,1,973.345,149.354Z" transform="translate(-960.157 -133.562)" fill="#4af3f8" fill-rule="evenodd"/><path d="M979.313,149.354a2.474,2.474,0,1,1-2.474,2.475A2.474,2.474,0,0,1,979.313,149.354Z" transform="translate(-960.138 -133.562)" fill="#4af3f8" fill-rule="evenodd"/><path d="M1022.375,177.151a2.474,2.474,0,1,1-2.474,2.474A2.474,2.474,0,0,1,1022.375,177.151Z" transform="translate(-960.001 -132.107)" fill="#4af3f8" fill-rule="evenodd"/><rect width="1.327" height="3.283" transform="translate(118.508 32.766)" fill="#04165d"/><path d="M-.128-.128H1.456v3.54H-.128ZM1.2.128H.128V3.154H1.2Z" transform="translate(118.508 32.766)" fill="#04165d"/><rect width="1.327" height="3.283" transform="translate(102.489 32.766)" fill="#04165d"/><path d="M-.128-.128H1.456v3.54H-.128ZM1.2.128H.128V3.154H1.2Z" transform="translate(102.489 32.766)" fill="#04165d"/><rect width="1.327" height="3.283" transform="translate(76.441 32.766)" fill="#04165d"/><path d="M-.128-.128H1.456v3.54H-.128ZM1.2.128H.128V3.154H1.2Z" transform="translate(76.441 32.766)" fill="#04165d"/></g></g></svg>