<svg xmlns="http://www.w3.org/2000/svg" width="29.732" height="31.225" viewBox="0 0 29.732 31.225">
  <g id="Group_2035" data-name="Group 2035" transform="translate(-1721.961 -489.378)">
    <path id="Path_1095" data-name="Path 1095" d="M267.86,381l-10.334-8.112a3.491,3.491,0,0,0-4.308,0L242.893,381A3.478,3.478,0,0,0,244.8,387.2v8.907a5.133,5.133,0,0,0,5.129,5.129h10.89a5.127,5.127,0,0,0,5.129-5.129V387.2A3.478,3.478,0,0,0,267.86,381Zm-12.488,13.36a3.137,3.137,0,1,1,3.137-3.137A3.139,3.139,0,0,1,255.372,394.355Z" transform="translate(1481.451 118.368)" fill="none" stroke="#75c9db" stroke-width="2"/>
  </g>
</svg>
