<svg xmlns="http://www.w3.org/2000/svg" xmlns:xlink="http://www.w3.org/1999/xlink" width="28.721" height="30.211" viewBox="0 0 28.721 30.211">
  <defs>
    <linearGradient id="linear-gradient" x1="1.836" y1="1.621" x2="0.126" y2="0.191" gradientUnits="objectBoundingBox">
      <stop offset="0" stop-color="#75c9db"/>
      <stop offset="1" stop-color="#04165d"/>
    </linearGradient>
  </defs>
  <g id="Group_2035" data-name="Group 2035" transform="translate(-1722.467 -489.893)">
    <path id="Path_1095" data-name="Path 1095" d="M267.86,381l-10.334-8.112a3.491,3.491,0,0,0-4.308,0L242.893,381A3.478,3.478,0,0,0,244.8,387.2v8.907a5.133,5.133,0,0,0,5.129,5.129h10.89a5.127,5.127,0,0,0,5.129-5.129V387.2A3.478,3.478,0,0,0,267.86,381Zm-12.488,13.36a3.137,3.137,0,1,1,3.137-3.137A3.139,3.139,0,0,1,255.372,394.355Z" transform="translate(1481.451 118.368)" stroke="rgba(0,0,0,0)" stroke-width="1" fill="url(#linear-gradient)"/>
  </g>
</svg>
