<svg xmlns="http://www.w3.org/2000/svg" xmlns:xlink="http://www.w3.org/1999/xlink" width="30.987" height="27.083" viewBox="0 0 30.987 27.083"><defs><style>.a{fill:url(#a);}</style><linearGradient id="a" x1="1.544" y1="-0.153" x2="0.297" y2="1" gradientUnits="objectBoundingBox"><stop offset="0" stop-color="#75c9db"/><stop offset="1" stop-color="#04165d"/></linearGradient></defs><g transform="translate(31.987 4.215)"><g transform="translate(-4)"><g transform="translate(-13)"><path class="a" d="M30.987,8.715V5.144a2.727,2.727,0,0,0-2.723-2.723H27.9V5.75a.908.908,0,0,1-1.816,0V.908a.908.908,0,0,0-1.816,0V2.421H18.217V5.75a.908.908,0,0,1-1.816,0V.908a.908.908,0,0,0-1.816,0V2.421H8.534V5.75a.908.908,0,0,1-1.816,0V.908A.908.908,0,0,0,4.9.908V2.421H2.723A2.727,2.727,0,0,0,0,5.144V8.715Z" transform="translate(-14.987 -4.215)"/><path class="a" d="M0,0V14.707A2.727,2.727,0,0,0,2.723,17.43h25.54a2.727,2.727,0,0,0,2.723-2.723V0ZM8.715,12.589H6.778a.908.908,0,0,1,0-1.816H8.715a.908.908,0,0,1,0,1.816Zm0-3.873H6.778a.908.908,0,0,1,0-1.816H8.715a.908.908,0,0,1,0,1.816Zm0-3.873H6.778a.908.908,0,1,1,0-1.816H8.715a.908.908,0,1,1,0,1.816Zm7.747,7.747H14.525a.908.908,0,1,1,0-1.816h1.937a.908.908,0,0,1,0,1.816Zm0-3.873H14.525a.908.908,0,0,1,0-1.816h1.937a.908.908,0,0,1,0,1.816Zm0-3.873H14.525a.908.908,0,0,1,0-1.816h1.937a.908.908,0,0,1,0,1.816Zm7.747,7.747H22.272a.908.908,0,1,1,0-1.816h1.937a.908.908,0,1,1,0,1.816Zm0-3.873H22.272a.908.908,0,0,1,0-1.816h1.937a.908.908,0,0,1,0,1.816Zm0-3.873H22.272a.908.908,0,0,1,0-1.816h1.937a.908.908,0,0,1,0,1.816Z" transform="translate(-14.987 5.438)"/></g></g></g></svg>