<svg xmlns="http://www.w3.org/2000/svg" xmlns:xlink="http://www.w3.org/1999/xlink" width="35.216" height="32.364" viewBox="0 0 35.216 32.364">
  <defs>
    <linearGradient id="linear-gradient" x1="1.544" y1="-0.153" x2="0.297" y2="1" gradientUnits="objectBoundingBox">
      <stop offset="0" stop-color="#75c9db"/>
      <stop offset="1" stop-color="#04165d"/>
    </linearGradient>
  </defs>
  <g id="Group_1894" data-name="Group 1894" transform="translate(-25.316 -18.996)">
    <path id="dashboard" d="M34.04,15.872A17.091,17.091,0,0,0,0,18.1,16.917,16.917,0,0,0,5.354,30.507a6.893,6.893,0,0,0,4.777,1.834H24.042a7.113,7.113,0,0,0,5-2.035,17.011,17.011,0,0,0,5-14.433Zm-23.4,11.713a1.424,1.424,0,0,1-2.011.128A12.808,12.808,0,0,1,17.091,5.28a12.961,12.961,0,0,1,3.2.4,1.425,1.425,0,0,1-.712,2.76,9.961,9.961,0,0,0-9.068,17.131A1.424,1.424,0,0,1,10.642,27.586Zm6.449-6.638a2.849,2.849,0,1,1,.729-5.592L23.206,9.97a1.424,1.424,0,1,1,2.014,2.014l-5.385,5.385a2.814,2.814,0,0,1-2.743,3.578Zm8.46,6.767a1.424,1.424,0,0,1-1.883-2.136,9.958,9.958,0,0,0,3.078-9.97,1.425,1.425,0,1,1,2.76-.712,12.952,12.952,0,0,1,.4,3.2,12.818,12.818,0,0,1-4.358,9.615Z" transform="translate(25.816 18.518)" stroke="rgba(0,0,0,0)" stroke-miterlimit="10" stroke-width="1" fill="url(#linear-gradient)"/>
  </g>
</svg>
